<?xml version="1.0" encoding="UTF-8" standalone="no"?>
<!-- Created with Inkscape (http://www.inkscape.org/) -->

<svg
   width="200"
   height="48"
   viewBox="0 0 513.29167 123.19"
   version="1.1"
   id="svg5"
   inkscape:version="1.1.2 (0a00cf5339, 2022-02-04)"
   sodipodi:docname="logo200white.svg"
   xmlns:inkscape="http://www.inkscape.org/namespaces/inkscape"
   xmlns:sodipodi="http://sodipodi.sourceforge.net/DTD/sodipodi-0.dtd"
   xmlns="http://www.w3.org/2000/svg"
   xmlns:svg="http://www.w3.org/2000/svg">
  <sodipodi:namedview
     id="namedview7"
     pagecolor="#ffffff"
     bordercolor="#cccccc"
     borderopacity="1"
     inkscape:pageshadow="0"
     inkscape:pageopacity="1"
     inkscape:pagecheckerboard="0"
     inkscape:document-units="mm"
     showgrid="false"
     units="px"
     height="200px"
     scale-x="9.7"
     inkscape:zoom="1.6748036"
     inkscape:cx="105.68403"
     inkscape:cy="85.681689"
     inkscape:window-width="1292"
     inkscape:window-height="704"
     inkscape:window-x="0"
     inkscape:window-y="0"
     inkscape:window-maximized="1"
     inkscape:current-layer="layer1" />
  <defs
     id="defs2" />
  <g
     inkscape:label="Layer 1"
     inkscape:groupmode="layer"
     id="layer1">
    <g
       transform="matrix(0.03527778,0,0,-0.03527778,20.495314,116.73788)"
       fill="#000000"
       stroke="none"
       id="g92"
       style="fill:#ffffff">
      <path
         d="m 1890,2899 c -14,-6 -35,-22 -46,-37 -20,-24 -28,-27 -80,-25 -33,1 -129,14 -214,29 -199,35 -394,40 -453,10 -100,-49 -191,-187 -191,-290 -1,-50 3,-61 24,-78 35,-29 141,-21 230,16 121,52 129,53 237,27 204,-48 240,-54 368,-55 124,-1 133,0 188,27 97,48 138,125 141,265 1,77 -1,85 -23,103 -18,15 -38,19 -90,18 -36,0 -77,-5 -91,-10 z"
         id="path88"
         style="fill:#ffffff" />
      <path
         d="M 1135,2259 C 891,2230 740,2156 587,1991 512,1910 478,1859 425,1748 324,1538 290,1285 325,990 360,692 442,533 664,339 768,248 859,199 980,171 c 217,-52 851,-55 1043,-5 34,9 94,31 134,49 288,133 461,370 519,711 23,134 23,414 0,548 -48,286 -179,500 -390,640 -110,73 -200,104 -381,132 -120,19 -647,28 -770,13 z m 481,-439 c 180,-14 300,-36 361,-66 97,-47 181,-166 225,-319 33,-114 33,-343 0,-458 -42,-147 -119,-268 -208,-324 -82,-53 -185,-67 -489,-68 -290,0 -361,10 -474,66 -157,79 -263,299 -264,549 0,192 53,337 170,461 75,79 189,143 283,158 78,12 245,13 396,1 z"
         id="path90"
         style="fill:#ffffff" />
    </g>
    <text
       xml:space="preserve"
       style="font-weight:600;font-size:47.9072px;line-height:1.25;font-family:'Dancing Script';-inkscape-font-specification:'Dancing Script Semi-Bold';stroke-width:2.56646;fill:#ffffff"
       x="138.78337"
       y="47.653839"
       id="text36903"><tspan
         sodipodi:role="line"
         id="tspan36901"
         style="font-style:normal;font-variant:normal;font-weight:bold;font-stretch:normal;font-size:47.9072px;font-family:'Dancing Script';-inkscape-font-specification:'Dancing Script Bold';stroke-width:2.56646;fill:#ffffff"
         x="138.78337"
         y="47.653839">Oleg Rõbnikov</tspan><tspan
         sodipodi:role="line"
         style="font-style:normal;font-variant:normal;font-weight:bold;font-stretch:normal;font-size:47.9072px;font-family:'Dancing Script';-inkscape-font-specification:'Dancing Script Bold';stroke-width:2.56646;fill:#ffffff"
         x="138.78337"
         y="107.53784"
         id="tspan36905">Web Development</tspan></text>
  </g>
</svg>
