<?xml version="1.0" standalone="no"?>
<!DOCTYPE svg PUBLIC "-//W3C//DTD SVG 20010904//EN"
 "http://www.w3.org/TR/2001/REC-SVG-20010904/DTD/svg10.dtd">
<svg version="1.0" xmlns="http://www.w3.org/2000/svg"
 width="300.000000pt" height="300.000000pt" viewBox="0 0 300.000000 300.000000"
 preserveAspectRatio="xMidYMid meet">

<g transform="translate(0.000000,300.000000) scale(0.100000,-0.100000)"
fill="#000000" stroke="none">
<path d="M1890 2899 c-14 -6 -35 -22 -46 -37 -20 -24 -28 -27 -80 -25 -33 1
-129 14 -214 29 -199 35 -394 40 -453 10 -100 -49 -191 -187 -191 -290 -1 -50
3 -61 24 -78 35 -29 141 -21 230 16 121 52 129 53 237 27 204 -48 240 -54 368
-55 124 -1 133 0 188 27 97 48 138 125 141 265 1 77 -1 85 -23 103 -18 15 -38
19 -90 18 -36 0 -77 -5 -91 -10z"/>
<path d="M1135 2259 c-244 -29 -395 -103 -548 -268 -75 -81 -109 -132 -162
-243 -101 -210 -135 -463 -100 -758 35 -298 117 -457 339 -651 104 -91 195
-140 316 -168 217 -52 851 -55 1043 -5 34 9 94 31 134 49 288 133 461 370 519
711 23 134 23 414 0 548 -48 286 -179 500 -390 640 -110 73 -200 104 -381 132
-120 19 -647 28 -770 13z m481 -439 c180 -14 300 -36 361 -66 97 -47 181 -166
225 -319 33 -114 33 -343 0 -458 -42 -147 -119 -268 -208 -324 -82 -53 -185
-67 -489 -68 -290 0 -361 10 -474 66 -157 79 -263 299 -264 549 0 192 53 337
170 461 75 79 189 143 283 158 78 12 245 13 396 1z"/>
</g>
</svg>
